<?xml version="1.0" encoding="utf-8"?>
<?xml-stylesheet type="text/xsl" href="rss1.xsl"?>
<rss version="2.0" xmlns:atom="http://www.w3.org/2005/Atom" xmlns:content="http://purl.org/rss/1.0/modules/content/" xmlns:dc="http://purl.org/dc/elements/1.1/" xmlns:media="http://search.yahoo.com/mrss/">
<channel>
 <title>Getty</title>
 <link>http://www.gettyimg.com/</link>
 <atom:link href="http://www.gettyimg.com/" rel="self" type="application/rss+xml" />

 
                <item>
                <title><![CDATA[【Requests】[REQ AUD] - Looking for Max Martin, Rami Y2K sound kit/pack]]></title>
                <link><![CDATA[https://sharemania.us/threads/looking-for-max-martin-rami-y2k-sound-kit-pack.249223/]]></link>
                <description><![CDATA[<article>
<blockquote class="messageText SelectQuoteContainer ugc baseHtml">
<b>Basically I'm looking for the sounds, synths, drums, pads, FXs etc. that Max Martin and Rami Yacoub used in 1998-2002 for Britney Spears, BSB, NSYNC I've seen people who had them but I don't know where did they got it... They sound kinda official (even if it's a remake it's a really good one) and they even remake stems with them</b><br>
<br>
<b>For example:</b><br>
<span data-s9e-mediaembed="youtube" style="display:inline-block;width:100%;max-width:640px"><span style="display:block;overflow:hidden;position:relative;padding-bottom:56.25%"><iframe allowfullscreen="" loading="lazy" scrolling="no" style="background:url(https://i.ytimg.com/vi/vpNdcLWnVkA/hqdefault.jpg) 50% 50% / cover;border:0;height:100%;left:0;position:absolute;width:100%" src="https://www.youtube.com/embed/vpNdcLWnVkA"></iframe></span></span><br>
<span data-s9e-mediaembed="youtube" style="display:inline-block;width:100%;max-width:640px"><span style="display:block;overflow:hidden;position:relative;padding-bottom:56.25%"><iframe allowfullscreen="" loading="lazy" scrolling="no" style="background:url(https://i.ytimg.com/vi/w_WkwigsG54/hqdefault.jpg) 50% 50% / cover;border:0;height:100%;left:0;position:absolute;width:100%" src="https://www.youtube.com/embed/w_WkwigsG54"></iframe></span></span><br>
<span data-s9e-mediaembed="youtube" style="display:inline-block;width:100%;max-width:640px"><span style="display:block;overflow:hidden;position:relative;padding-bottom:56.25%"><iframe allowfullscreen="" loading="lazy" scrolling="no" style="background:url(https://i.ytimg.com/vi/2j9Au3yF-Jo/hqdefault.jpg) 50% 50% / cover;border:0;height:100%;left:0;position:absolute;width:100%" src="https://www.youtube.com/embed/2j9Au3yF-Jo"></iframe></span></span><br>
<span data-s9e-mediaembed="youtube" style="display:inline-block;width:100%;max-width:640px"><span style="display:block;overflow:hidden;position:relative;padding-bottom:56.25%"><iframe allowfullscreen="" loading="lazy" scrolling="no" style="background:url(https://i.ytimg.com/vi/ZyAaMGzymgI/hqdefault.jpg) 50% 50% / cover;border:0;height:100%;left:0;position:absolute;width:100%" src="https://www.youtube.com/embed/ZyAaMGzymgI"></iframe></span></span><br>
<span data-s9e-mediaembed="youtube" style="display:inline-block;width:100%;max-width:640px"><span style="display:block;overflow:hidden;position:relative;padding-bottom:56.25%"><iframe allowfullscreen="" loading="lazy" scrolling="no" style="background:url(https://i.ytimg.com/vi/1Lp4Br2hkVs/hqdefault.jpg) 50% 50% / cover;border:0;height:100%;left:0;position:absolute;width:100%" src="https://www.youtube.com/embed/1Lp4Br2hkVs"></iframe></span></span><br>
<b>I really wanna use these and make Y2K inspired beats</b><br>
<br>
<span style="font-size: 15px">(Idk if it's ok to request them here but if it's not mods are free to move or delete this req)</span>
<div class="messageTextEndMarker">&nbsp;</div>
</blockquote>
</article>]]></description>
                <author><![CDATA[Britneyssbloverr]]></author>
                </item>

                
                <item>
                <title><![CDATA[【Apple Music】WEB-RiP - Jerome, LUNAX &amp; Orange INC - Breathe Me To Life (Ayahuasca) [feat. Nathalie Blue] (1080p)]]></title>
                <link><![CDATA[https://sharemania.us/threads/jerome-lunax-orange-inc-breathe-me-to-life-ayahuasca-feat-nathalie-blue-1080p.249225/]]></link>
                <description><![CDATA[<article>
<blockquote class="messageText SelectQuoteContainer ugc baseHtml">
<img src="https://i.postimg.cc/rs4zmNn5/Jerome-LUNAX-Orange-INC-Breathe-Me-To-Life-Ayahuasca-feat-Nathalie-Blue-mp4.jpg" class="bbCodeImage LbImage" alt="[​IMG]" data-url="https://i.postimg.cc/rs4zmNn5/Jerome-LUNAX-Orange-INC-Breathe-Me-To-Life-Ayahuasca-feat-Nathalie-Blue-mp4.jpg" style=""><br>
<br>
<div class="bbCodeBlock bbCodeCode">
<div class="type">Code:</div>
<pre>General
Complete name                  : G:\Новая папка\Jerome, LUNAX &amp; Orange INC - Breathe Me To Life (Ayahuasca) [feat. Nathalie Blue].mp4
Format                         : MPEG-4
Format profile                 : Base Media
Codec ID                       : isom (isom/iso2/avc1/mp41)
File size                      : 159 MiB
Duration                       : 3 min 15 s
Overall bit rate               : 6 850 kb/s
Frame rate                     : 25.000 FPS
Movie name                     : Breathe Me To Life (Ayahuasca) [feat. Nathalie Blue]
Performer                      : Jerome, LUNAX &amp; Orange INC
Genre                          : Dance
ContentType                    : Music Video
Recorded date                  : 2021-12-30 08:00:00 UTC
Writing application            : Lavf56.30.100
Copyright                      : ℗ 2021 Kontor Records GmbH / Beat Dealer Records

Video
ID                             : 1
Format                         : AVC
Format/Info                    : Advanced Video Codec
Format profile                 : High@L4
Format settings                : CABAC / 5 Ref Frames
Format settings, CABAC         : Yes
Format settings, Reference fra : 5 frames
Format settings, Slice count   : 8 slices per frame
Codec ID                       : avc1
Codec ID/Info                  : Advanced Video Coding
Duration                       : 3 min 15 s
Bit rate                       : 6 581 kb/s
Width                          : 1 918 pixels
Height                         : 816 pixels
Display aspect ratio           : 2.35:1
Frame rate mode                : Constant
Frame rate                     : 25.000 FPS
Color space                    : YUV
Chroma subsampling             : 4:2:0
Bit depth                      : 8 bits
Scan type                      : Progressive
Bits/(Pixel*Frame)             : 0.168
Stream size                    : 153 MiB (96%)
Color range                    : Limited
Color primaries                : BT.709
Transfer characteristics       : BT.709
Matrix coefficients            : BT.709
Codec configuration box        : avcC

Audio
ID                             : 2
Format                         : AAC LC
Format/Info                    : Advanced Audio Codec Low Complexity
Codec ID                       : mp4a-40-2
Duration                       : 3 min 15 s
Duration_LastFrame             : -9 ms
Bit rate mode                  : Constant
Bit rate                       : 265 kb/s
Channel(s)                     : 2 channels
Channel layout                 : L R
Sampling rate                  : 48.0 kHz
Frame rate                     : 46.875 FPS (1024 SPF)
Compression mode               : Lossy
Stream size                    : 6.13 MiB (4%)
Default                        : Yes
Alternate group                : 1

</pre>
</div>
<div class="bbCodeBlock bbCodeVfcHH HiddenContent">
<div class="attribution type">Hidden Content:</div>
<blockquote>You must either reply or click 'Like' to see the hidden information contained here.</blockquote>
</div>
<div class="messageTextEndMarker">&nbsp;</div>
</blockquote>
</article>]]></description>
                <author><![CDATA[vitalya3]]></author>
                </item>

                
                <item>
                <title><![CDATA[【Cinema Center】MOVIE - Harry Potter Extended Versions from Peacock]]></title>
                <link><![CDATA[https://sharemania.us/threads/harry-potter-extended-versions-from-peacock.249226/]]></link>
                <description><![CDATA[<article>
<blockquote class="messageText SelectQuoteContainer ugc baseHtml">
Peacock is now streaming Extended versions of Harry Potter movies. Previously only first two movie were available as extended versions. Can anybody rip these movies (all 8) in the highest quality possible please?<br>
<a href="https://www.peacocktv.com/collections/harry-potter-movies" target="_blank" class="externalLink" rel="nofollow">https://www.peacocktv.com/collections/harry-potter-movies</a>
<div class="messageTextEndMarker">&nbsp;</div>
</blockquote>
</article>]]></description>
                <author><![CDATA[thankstome]]></author>
                </item>

                
                <item>
                <title><![CDATA[【Apple Music】WEB-RiP - DiezZ - E vara (feat. Cristina Vasiu) (1080p)]]></title>
                <link><![CDATA[https://sharemania.us/threads/diezz-e-vara-feat-cristina-vasiu-1080p.249222/]]></link>
                <description><![CDATA[<article>
<blockquote class="messageText SelectQuoteContainer ugc baseHtml">
<img src="https://i.postimg.cc/s2w8Z9FG/Diez-Z-E-vara-feat-Cristina-Vasiu-mp4.jpg" class="bbCodeImage LbImage" alt="[​IMG]" data-url="https://i.postimg.cc/s2w8Z9FG/Diez-Z-E-vara-feat-Cristina-Vasiu-mp4.jpg" style=""><br>
<br>
<div class="bbCodeBlock bbCodeCode">
<div class="type">Code:</div>
<pre>General
Complete name                  : G:\Новая папка\DiezZ - E vara (feat. Cristina Vasiu).mp4
Format                         : MPEG-4
Format profile                 : Base Media
Codec ID                       : isom (isom/iso2/avc1/mp41)
File size                      : 189 MiB
Duration                       : 3 min 49 s
Overall bit rate               : 6 889 kb/s
Frame rate                     : 25.000 FPS
Movie name                     : E vara (feat. Cristina Vasiu)
Performer                      : DiezZ
Genre                          : Pop
ContentType                    : Music Video
Recorded date                  : 2021-09-08 07:00:00 UTC
Writing application            : Lavf56.30.100
Copyright                      : ℗ 2017 Cat Music

Video
ID                             : 1
Format                         : AVC
Format/Info                    : Advanced Video Codec
Format profile                 : High@L4
Format settings                : CABAC / 5 Ref Frames
Format settings, CABAC         : Yes
Format settings, Reference fra : 5 frames
Format settings, Slice count   : 8 slices per frame
Codec ID                       : avc1
Codec ID/Info                  : Advanced Video Coding
Duration                       : 3 min 49 s
Bit rate                       : 6 633 kb/s
Width                          : 1 920 pixels
Height                         : 816 pixels
Display aspect ratio           : 2.35:1
Frame rate mode                : Constant
Frame rate                     : 25.000 FPS
Color space                    : YUV
Chroma subsampling             : 4:2:0
Bit depth                      : 8 bits
Scan type                      : Progressive
Bits/(Pixel*Frame)             : 0.169
Stream size                    : 182 MiB (96%)
Color range                    : Limited
Color primaries                : BT.709
Transfer characteristics       : BT.709
Matrix coefficients            : BT.709
Codec configuration box        : avcC

Audio
ID                             : 2
Format                         : AAC LC
Format/Info                    : Advanced Audio Codec Low Complexity
Codec ID                       : mp4a-40-2
Duration                       : 3 min 49 s
Duration_LastFrame             : -2 ms
Bit rate mode                  : Constant
Bit rate                       : 251 kb/s
Channel(s)                     : 2 channels
Channel layout                 : L R
Sampling rate                  : 48.0 kHz
Frame rate                     : 46.875 FPS (1024 SPF)
Compression mode               : Lossy
Stream size                    : 6.89 MiB (4%)
Default                        : Yes
Alternate group                : 1

</pre>
</div>
<div class="bbCodeBlock bbCodeVfcHH HiddenContent">
<div class="attribution type">Hidden Content:</div>
<blockquote>You must either reply or click 'Like' to see the hidden information contained here.</blockquote>
</div>
<div class="messageTextEndMarker">&nbsp;</div>
</blockquote>
</article>]]></description>
                <author><![CDATA[vitalya3]]></author>
                </item>

                
                <item>
                <title><![CDATA[【Albums (lossless)】ALAC - Ariana Grande - sweetener (Bonus Videos Edition) (2018) [Apple Lossless 24 bits/44,1 kHz]]]></title>
                <link><![CDATA[https://sharemania.us/threads/ariana-grande-sweetener-bonus-videos-edition-2018-apple-lossless-24-bits-44-1-khz.249224/]]></link>
                <description><![CDATA[<article>
<blockquote class="messageText SelectQuoteContainer ugc baseHtml">
<img src="https://a5.mzstatic.com/us/r1000/0/Music115/v4/9e/71/a4/9e71a47f-c290-a542-07fd-a3aed41eefa7/18UMGIM36924.rgb.jpg" class="bbCodeImage LbImage" alt="[​IMG]" data-url="https://a5.mzstatic.com/us/r1000/0/Music115/v4/9e/71/a4/9e71a47f-c290-a542-07fd-a3aed41eefa7/18UMGIM36924.rgb.jpg" style=""><br>
<div style="text-align: center"><img src="https://bendodson.s3-eu-west-1.amazonaws.com/apple-music/lossless.png" class="bbCodeImage LbImage" alt="[​IMG]" data-url="https://bendodson.s3-eu-west-1.amazonaws.com/apple-music/lossless.png" style="">​</div>
<div class="ToggleTriggerAnchor bbCodeSpoilerContainer">
<button type="button" class="button bbCodeSpoilerButton ToggleTrigger Tooltip JsOnly" data-target="> .SpoilerTarget"><span>Spoiler: <span class="SpoilerTitle">MediaInfo</span></span></button>
<div class="SpoilerTarget bbCodeSpoilerText">
<div class="bbCodeBlock bbCodeCode">
<div class="type">Code:</div>
<pre>General
Format                                   : MPEG-4
Format profile                           : Apple audio with iTunes info
Codec ID                                 : M4A  (M4A /isom/iso2)
File size                                : 42.4 MiB
Duration                                 : 3 min 16 s
Overall bit rate mode                    : Variable
Overall bit rate                         : 1 813 kb/s
Album                                    : sweetener (Bonus Videos Edition)
Album/Performer                          : Ariana Grande
Part/Position                            : 1
Track name                               : blazed (feat. Pharrell Williams)
Track name/Position                      : 2
Performer                                : Ariana Grande
Composer                                 : Ariana Grande, Pharrell Williams &amp; Maxine Ashley
Genre                                    : Pop
ContentType                              : Movie
Recorded date                            : 2018-08-17
Encoded date                             : 2024-03-12 04:33:51 UTC
Tagged date                              : 2024-07-08 13:38:51 UTC
Copyright                                : ℗ 2018 Republic Records, a Division of UMG Recordings, Inc.
Cover                                    : Yes
Lyrics                                   : [00:01.32]There is somethin' between us / [00:03.51]I can see it right now / [00:05.59]Your magnetic demeanor / [00:07.82]That's something can't be found / [00:09.76]I thought that I was dreamin' / [00:12.18]Till my love came around / [00:14.40]Now I just come on over / [00:16.50]Show you how we get down / [00:18.44]Shawty, you can get blazed / [00:20.16]I can't believe that you're here / [00:22.28]I can't believe it's happening / [00:24.41]What are the odds that you'd appear? / [00:26.62]The universe, so vast to me / [00:28.84]Seven billion is on the Earth / [00:31.01]Coulda been anywhere, but you're here with me / [00:33.16]Should I play lotto? What's it worth? / [00:35.35]I must be on, so clear to me / [00:37.30]Once I have you / [00:41.73]I will never let you, never let you / [00:46.04]Once I have you / [00:50.44]I will never let you, never let you go / [00:56.98]Never let you, never let you go / [01:01.26]Never let you, never let you go / [01:05.60]Never let you, never let you go / [01:09.97]Never let you / [01:11.13]There is somethin' between us / [01:13.26]I can see it right now / [01:15.43]Your magnetic demeanor / [01:17.57]That's something can't be found / [01:19.63]I thought that I was dreamin' / [01:21.97]Till my love came around / [01:24.18]Now I just come on over / [01:26.33]Show you how we get down / [01:28.26]Shawty, you can get blazed / [01:29.89]Look at you, love, you are the same / [01:32.08]You have a light you cannot hide / [01:34.28]Yes, you may have a different face / [01:36.44]But your soul is the same inside / [01:38.62]I don't care who is listening / [01:40.75]'Cause they be makin' fun of this on TV / [01:43.03]They wouldn't laugh if they were inside my past life / [01:45.95]With you and they were me / [01:47.12]Once I have you / [01:51.51]I will never let you, never let you / [01:55.86]Once I have you / [02:00.18]I will never let you, never let you go / [02:06.75]Never let you, never let you go / [02:11.06]Never let you, never let you go, ah / [02:15.44]Never let you, never let you go, yeah / [02:19.85]Never let you... / [02:21.95]Don't think that it cannot happen / [02:25.89]'Cause it can / [02:29.32]Shawty, you can get blazed / [02:30.69]Sleep if you want and wake up in love again / [02:38.09]Shawty, you can get blazed / [02:39.53]Once I have you / [02:43.84]I will never let you, never let you / [02:48.16]Once I have you / [02:52.57]I will never let you, never let you go (Shawty, you can get blazed, blazed) / [02:58.32]Ah-ha, never let you, never let you go away, bae / [03:03.43]Never let you, never let you go, aye / [03:07.88]Never let you, never let you go, hey / [03:12.15]Never let you...
rndu                                     : 0
rpdu                                     : 0

Audio
ID                                       : 2
Format                                   : ALAC
Codec ID                                 : alac
Codec ID/Info                            : Apple Lossless Audio Codec
Duration                                 : 3 min 16 s
Duration_LastFrame                       : -80 ms
Bit rate mode                            : Variable
Bit rate                                 : 1 728 kb/s
Nominal bit rate                         : 2 117 kb/s
Channel(s)                               : 2 channels
Sampling rate                            : 44.1 kHz
Bit depth                                : 24 bits
Stream size                              : 40.4 MiB (95%)
Default                                  : Yes
Alternate group                          : 1
Encoded date                             : 2024-03-12 04:33:51 UTC
Tagged date                              : 2024-07-08 13:38:51 UTC
</pre>
</div></div>
</div><b>Released:</b> Aug 17, 2018<br>
<b>Source:</b> Apple<br>
<b>File Size:</b> 1.41 GB<br>
<b>Tracklist:</b><br>
01 raindrops (an angel cried) <img src="https://i.ibb.co/CtZZ7yG/e.png" class="bbCodeImage LbImage" alt="[​IMG]" data-url="https://i.ibb.co/CtZZ7yG/e.png" style=""><br>
02 blazed (feat. Pharrell Williams) <img src="https://i.ibb.co/CtZZ7yG/e.png" class="bbCodeImage LbImage" alt="[​IMG]" data-url="https://i.ibb.co/CtZZ7yG/e.png" style=""><br>
03 the light is coming (feat. Nicki Minaj) <img src="https://i.ibb.co/CtZZ7yG/e.png" class="bbCodeImage LbImage" alt="[​IMG]" data-url="https://i.ibb.co/CtZZ7yG/e.png" style=""><br>
04 R.E.M <img src="https://i.ibb.co/CtZZ7yG/e.png" class="bbCodeImage LbImage" alt="[​IMG]" data-url="https://i.ibb.co/CtZZ7yG/e.png" style=""><br>
05 God is a woman <img src="https://i.ibb.co/CtZZ7yG/e.png" class="bbCodeImage LbImage" alt="[​IMG]" data-url="https://i.ibb.co/CtZZ7yG/e.png" style=""><br>
06 sweetener <img src="https://i.ibb.co/CtZZ7yG/e.png" class="bbCodeImage LbImage" alt="[​IMG]" data-url="https://i.ibb.co/CtZZ7yG/e.png" style=""><br>
07 successful <img src="https://i.ibb.co/CtZZ7yG/e.png" class="bbCodeImage LbImage" alt="[​IMG]" data-url="https://i.ibb.co/CtZZ7yG/e.png" style=""><br>
08 everytime <img src="https://i.ibb.co/CtZZ7yG/e.png" class="bbCodeImage LbImage" alt="[​IMG]" data-url="https://i.ibb.co/CtZZ7yG/e.png" style=""><br>
09 breathin <img src="https://i.ibb.co/CtZZ7yG/e.png" class="bbCodeImage LbImage" alt="[​IMG]" data-url="https://i.ibb.co/CtZZ7yG/e.png" style=""><br>
10 no tears left to cry<br>
11 borderline (feat. Missy Elliott) <img src="https://i.ibb.co/CtZZ7yG/e.png" class="bbCodeImage LbImage" alt="[​IMG]" data-url="https://i.ibb.co/CtZZ7yG/e.png" style=""><br>
12 better off <img src="https://i.ibb.co/CtZZ7yG/e.png" class="bbCodeImage LbImage" alt="[​IMG]" data-url="https://i.ibb.co/CtZZ7yG/e.png" style=""><br>
13 goodnight n go <img src="https://i.ibb.co/CtZZ7yG/e.png" class="bbCodeImage LbImage" alt="[​IMG]" data-url="https://i.ibb.co/CtZZ7yG/e.png" style=""><br>
14 pete davidson <img src="https://i.ibb.co/CtZZ7yG/e.png" class="bbCodeImage LbImage" alt="[​IMG]" data-url="https://i.ibb.co/CtZZ7yG/e.png" style=""><br>
15 get well soon <img src="https://i.ibb.co/CtZZ7yG/e.png" class="bbCodeImage LbImage" alt="[​IMG]" data-url="https://i.ibb.co/CtZZ7yG/e.png" style=""><br>
16 <img src="https://i.ibb.co/55vjynC/video.png" class="bbCodeImage LbImage" alt="[​IMG]" data-url="https://i.ibb.co/55vjynC/video.png" style=""> the light is coming (feat. Nicki Minaj) <img src="https://i.ibb.co/CtZZ7yG/e.png" class="bbCodeImage LbImage" alt="[​IMG]" data-url="https://i.ibb.co/CtZZ7yG/e.png" style=""><br>
17 <img src="https://i.ibb.co/55vjynC/video.png" class="bbCodeImage LbImage" alt="[​IMG]" data-url="https://i.ibb.co/55vjynC/video.png" style=""> God is a woman <img src="https://i.ibb.co/CtZZ7yG/e.png" class="bbCodeImage LbImage" alt="[​IMG]" data-url="https://i.ibb.co/CtZZ7yG/e.png" style=""><br>
18 <img src="https://i.ibb.co/55vjynC/video.png" class="bbCodeImage LbImage" alt="[​IMG]" data-url="https://i.ibb.co/55vjynC/video.png" style=""> breathin <img src="https://i.ibb.co/CtZZ7yG/e.png" class="bbCodeImage LbImage" alt="[​IMG]" data-url="https://i.ibb.co/CtZZ7yG/e.png" style=""><br>
19 <img src="https://i.ibb.co/55vjynC/video.png" class="bbCodeImage LbImage" alt="[​IMG]" data-url="https://i.ibb.co/55vjynC/video.png" style=""> no tears left to cry<br>
<div class="bbCodeBlock bbCodeVfcHH HiddenContent">
<div class="attribution type">Hidden Content:</div>
<blockquote>You must reply before you can see the hidden data contained here.</blockquote>
</div>
<div class="messageTextEndMarker">&nbsp;</div>
</blockquote>
</article>]]></description>
                <author><![CDATA[itunesboy]]></author>
                </item>

                
                <item>
                <title><![CDATA[【Helpdesk】[HELP] Looking for Max Martin, Rami Y2K sound kit/pack]]></title>
                <link><![CDATA[https://sharemania.us/threads/help-looking-for-max-martin-rami-y2k-sound-kit-pack.249221/]]></link>
                <description><![CDATA[<article>
<blockquote class="messageText SelectQuoteContainer ugc baseHtml">
<b>Basically I'm looking for the sounds, synths, drums, pads, FXs etc. that Max Martin and Rami Yacoub used in 1998-2002 for Britney Spears, BSB, NSYNC I've seen people who had them but I don't know where did they got it... They sound kinda official (even if it's a remake it's a really good one) and they even remake stems with them</b><br>
<br>
<b>For example:</b><br>
<span data-s9e-mediaembed="youtube" style="display:inline-block;width:100%;max-width:640px"><span style="display:block;overflow:hidden;position:relative;padding-bottom:56.25%"><iframe allowfullscreen="" loading="lazy" scrolling="no" style="background:url(https://i.ytimg.com/vi/vpNdcLWnVkA/hqdefault.jpg) 50% 50% / cover;border:0;height:100%;left:0;position:absolute;width:100%" src="https://www.youtube.com/embed/vpNdcLWnVkA"></iframe></span></span><br>
<span data-s9e-mediaembed="youtube" style="display:inline-block;width:100%;max-width:640px"><span style="display:block;overflow:hidden;position:relative;padding-bottom:56.25%"><iframe allowfullscreen="" loading="lazy" scrolling="no" style="background:url(https://i.ytimg.com/vi/w_WkwigsG54/hqdefault.jpg) 50% 50% / cover;border:0;height:100%;left:0;position:absolute;width:100%" src="https://www.youtube.com/embed/w_WkwigsG54"></iframe></span></span><br>
<span data-s9e-mediaembed="youtube" style="display:inline-block;width:100%;max-width:640px"><span style="display:block;overflow:hidden;position:relative;padding-bottom:56.25%"><iframe allowfullscreen="" loading="lazy" scrolling="no" style="background:url(https://i.ytimg.com/vi/2j9Au3yF-Jo/hqdefault.jpg) 50% 50% / cover;border:0;height:100%;left:0;position:absolute;width:100%" src="https://www.youtube.com/embed/2j9Au3yF-Jo"></iframe></span></span><br>
<span data-s9e-mediaembed="youtube" style="display:inline-block;width:100%;max-width:640px"><span style="display:block;overflow:hidden;position:relative;padding-bottom:56.25%"><iframe allowfullscreen="" loading="lazy" scrolling="no" style="background:url(https://i.ytimg.com/vi/ZyAaMGzymgI/hqdefault.jpg) 50% 50% / cover;border:0;height:100%;left:0;position:absolute;width:100%" src="https://www.youtube.com/embed/ZyAaMGzymgI"></iframe></span></span><br>
<span data-s9e-mediaembed="youtube" style="display:inline-block;width:100%;max-width:640px"><span style="display:block;overflow:hidden;position:relative;padding-bottom:56.25%"><iframe allowfullscreen="" loading="lazy" scrolling="no" style="background:url(https://i.ytimg.com/vi/1Lp4Br2hkVs/hqdefault.jpg) 50% 50% / cover;border:0;height:100%;left:0;position:absolute;width:100%" src="https://www.youtube.com/embed/1Lp4Br2hkVs"></iframe></span></span><br>
<b>I really wanna use these and make Y2K inspired beats</b>
<div class="messageTextEndMarker">&nbsp;</div>
</blockquote>
</article>]]></description>
                <author><![CDATA[Britneyssbloverr]]></author>
                </item>

                </channel></rss>